<svg xmlns="http://www.w3.org/2000/svg" xmlns:xlink="http://www.w3.org/1999/xlink" width="100" zoomAndPan="magnify" viewBox="0 0 75 74.999997" height="100" preserveAspectRatio="xMidYMid meet" version="1.0"><path fill="#ff7e15" d="M 60.609375 4.65625 C 59.40625 3.144531 57.21875 2.894531 55.703125 4.089844 L 44.574219 12.90625 L 39.132812 6.054688 C 38.753906 5.574219 37.96875 5.484375 37.492188 5.867188 L 26.886719 14.261719 C 17.878906 21.394531 15.363281 33.621094 20.191406 43.523438 L 2.648438 57.410156 C 0.378906 59.210938 0 62.480469 1.800781 64.75 C 3.601562 67.015625 6.878906 67.394531 9.152344 65.59375 L 26.691406 51.707031 C 35.25 58.652344 47.746094 58.988281 56.753906 51.855469 L 67.359375 43.460938 C 67.839844 43.082031 67.929688 42.300781 67.546875 41.820312 L 62.105469 34.972656 L 73.234375 26.160156 C 74.75 24.960938 75.003906 22.773438 73.800781 21.261719 C 72.601562 19.75 70.410156 19.5 68.898438 20.699219 L 57.765625 29.511719 L 48.914062 18.367188 L 60.042969 9.550781 C 61.558594 8.351562 61.808594 6.167969 60.609375 4.65625 Z M 60.609375 4.65625 " fill-opacity="1" fill-rule="nonzero"/></svg>